<?xml version="1.0" encoding="UTF-8"?>
<svg version="1.1" viewBox="0 0 2000 2000" width="1280" height="1280" xmlns="http://www.w3.org/2000/svg">
<path transform="translate(0)" d="m0 0h2e3v2e3h-2e3z" fill="#FEFEFE"/>
<path transform="translate(942,766)" d="m0 0 5 1 12 7 21 14 26 17 6 2 17-11 23-15 16-10 5-2 24 15 23 16 14 9 87 58 16 10 16 11 17 11 27 18 25 17 12 8 17 11 12 8 1 1v6l-4 4-7-1-8-4-17-12-21-13-17-12-22-14-13-9-138-92-32-21-12-8-5 2-24 15-19 12v3l20 12 60 40 11 7 27 18 17 11 18 11 14 10 16 10 33 22 10 6 1 7-5 4-9-2-34-22-18-12-24-15-20-14-24-15-20-14-17-11-25-16-23-15-15-10-22-14-10-7-22-14-15-10-6-3-18 11-18 12-11 7-27 18-18 11-27 18-25 16-55 36-22 14-49 32-17 11-14 8h-4l-3-6 1-5 7-6 18-11 45-30 25-16 5-3 1-2 1-86 1-4 2-1h65l1 1v45l18-11 15-10 22-14 44-29 23-15 10-6z" fill="#040404"/>
<path transform="translate(1083,1027)" d="m0 0h9l12 2 12 5 9 7 5 5 6 8 5 12 1 5v22l-4 13-6 10-6 7-12 8-14 5-6 1h-12l-16-4-11-6-10-9-8-14-3-9-1-6v-13l2-10 4-11 8-11 10-8 14-7z" fill="#040404"/>
<path transform="translate(563,1029)" d="m0 0h31l12 34 13 36 12 33v4h-27l-6-18h-40l-5 16-2 2h-25l-1-4 9-24 18-50 10-28z" fill="#040404"/>
<path transform="translate(892,1028)" d="m0 0h18l13 3 11 6 9 8 8 14 1 6h-28l-8-9-7-3h-15l-10 5-5 6-4 12v10l2 9 5 9 5 5 5 2 12 1 9-2 8-6 1-4 2-1h28l-1 5-6 12-8 9-11 7-14 4h-21l-13-4-12-7-7-7-8-16-3-13v-13l3-14 7-14 5-6 11-8 9-4z" fill="#040404"/>
<path transform="translate(1217,1029)" d="m0 0h29l16 50 9 27 2-2 25-75h28l-10 29-13 37-13 36-3 5h-31l-3-5-20-57-15-42z" fill="#040404"/>
<path transform="translate(1405,1029)" d="m0 0h66v13l-1 8h-39v21h33l3 1-1 19-3 1h-31v22l39 1v20l-1 1h-65z" fill="#040404"/>
<path transform="translate(711,1029)" d="m0 0h26v87h35v12l-1 8h-60z" fill="#040404"/>
<path transform="translate(1082,1051)" d="m0 0h12l9 3 6 5 5 8 2 8v13l-4 13-5 6-10 5-4 1h-11l-9-3-7-6-5-10-1-4v-17l4-10 6-7 8-4z" fill="#FEFEFE"/>
<path transform="translate(753,819)" d="m0 0h41v42l-5 5-26 16-9 6h-2v-68z" fill="#FEFEFE"/>
<path transform="translate(644,1206)" d="m0 0h21l6 4 2 5v10l-4 5-4 2h-3l7 11 4 6v3l-5-1-6-8-5-9-8-2v20h-5l-1-1v-26z" fill="#040404"/>
<path transform="translate(1200,1205)" d="m0 0 6 2 6 16 10 27v2l-6-1-4-9-21-1-1 7-3 4h-4l1-5 13-37z" fill="#040404"/>
<path transform="translate(800,1205)" d="m0 0 4 1 4 8 12 34v4l-5-1-4-9h-20l-4 10h-5l1-6 10-27z" fill="#040404"/>
<path transform="translate(577,1059)" d="m0 0h2l11 32 1 6h-26l2-9z" fill="#FEFEFE"/>
<path transform="translate(1055,1205)" d="m0 0h7l6 3 4 4 1 4-3 1-9-6h-7l-4 4-1 4 4 5 16 5 4 4 1 7-4 8-7 4h-9l-6-3-4-4-1-5 3-1 5 5 7 3 5-1 4-4 1-4-2-4-17-6-5-4v-11l5-6z" fill="#040404"/>
<path transform="translate(717,1206)" d="m0 0h25l-1 4h-18v15l17 1v4l-17 1v16h19v4h-25z" fill="#040404"/>
<path transform="translate(977,1206)" d="m0 0h24l-1 4h-18v15l6 1h10l2 1-1 3-17 1v16h19v4l-14 1h-10l-1-1v-35z" fill="#040404"/>
<path transform="translate(1333,1206)" d="m0 0h25l-2 4h-17v17l17-1v4l-17 1v16h19l-1 4-20 1-4-1z" fill="#040404"/>
<path transform="translate(1113,1206)" d="m0 0h32l-1 4h-12l-1 42h-5l-1-41-13-2z" fill="#040404"/>
<path transform="translate(1261,1206)" d="m0 0h32l-1 4h-12l-1 41-5 1-1-41-11-1z" fill="#040404"/>
<path transform="translate(649,1210)" d="m0 0h12l6 3 1 2v9l-6 4-11 1-3-3z" fill="#FEFEFE"/>
<path transform="translate(864,1205)" d="m0 0 4 1 1 41h16v4l-21 1-1-1v-34z" fill="#040404"/>
<path transform="translate(1201,1213)" d="m0 0h2l7 19 1 5h-17l2-10z" fill="#FEFEFE"/>
<path transform="translate(801,1212)" d="m0 0 2 2 7 21v2h-17l2-9z" fill="#FEFEFE"/>
</svg>
